<svg xmlns="http://www.w3.org/2000/svg"  viewBox="0 0 24 24" width="24px" height="24px" fill="#ffffff"><path d="M16.526 6.397l1.468 4.609 4.609 1.468c.512.163.512.888 0 1.051l-4.609 1.468-1.468 4.609c-.163.512-.888.512-1.051 0l-1.468-4.609-4.609-1.468c-.512-.163-.512-.888 0-1.051l4.609-1.468 1.468-4.609C15.638 5.885 16.362 5.885 16.526 6.397zM6.534 2.41l.979 3.072c.001.003.003.005.006.006l3.072.979c.52.166.52.902 0 1.067L7.518 8.512C7.515 8.513 7.513 8.515 7.512 8.518L6.534 11.59c-.166.52-.902.52-1.067 0L4.488 8.518C4.487 8.515 4.485 8.513 4.482 8.512L1.41 7.534c-.52-.166-.52-.902 0-1.067l3.072-.979c.003-.001.005-.003.006-.006L5.466 2.41C5.632 1.89 6.368 1.89 6.534 2.41zM7.557 16.42l.484 1.518c.003.01.011.018.021.021l1.518.484c.543.173.543.941 0 1.114L8.062 20.04c-.01.003-.018.011-.021.021L7.557 21.58c-.173.543-.941.543-1.114 0L5.96 20.062c-.003-.01-.011-.018-.021-.021L4.42 19.557c-.543-.173-.543-.941 0-1.114l1.518-.484c.01-.003.018-.011.021-.021l.484-1.518C6.616 15.878 7.384 15.878 7.557 16.42z"/></svg>