<?xml version="1.0" encoding="UTF-8"?>
<svg id="Layer_1" data-name="Layer 1" xmlns="http://www.w3.org/2000/svg" viewBox="0 0 2439.27 2439.27">
  <defs>
    <style>
      .cls-1 {
        fill: none;
        stroke: #fff;
        stroke-linecap: round;
        stroke-linejoin: round;
        stroke-width: 133px;
      }

      .cls-2 {
        fill:rgb(42, 169, 64);
      }

      .cls-3 {
        fill: rgb(51, 167, 70);
      }
    </style>
  </defs>
  <g>
    <rect class="cls-3" x=".5" y=".5" width="2438.27" height="2438.27" rx="163.5" ry="163.5"/>
    <path class="cls-2" d="M2275.27,1c43.54,0,84.47,16.95,115.26,47.74,30.79,30.79,47.74,71.72,47.74,115.26v2111.27c0,43.54-16.95,84.47-47.74,115.26s-71.72,47.74-115.26,47.74H164c-43.54,0-84.47-16.95-115.26-47.74-30.79-30.79-47.74-71.72-47.74-115.26V164c0-43.54,16.95-84.47,47.74-115.26C79.53,17.95,120.46,1,164,1h2111.27M2275.27,0H164C73.42,0,0,73.42,0,164v2111.27c0,90.57,73.42,164,164,164h2111.27c90.57,0,164-73.42,164-164V164c0-90.57-73.42-164-164-164h0Z"/>
  </g>
  <g id="Interface_Check_All" data-name="Interface / Check_All">
    <path id="Vector" class="cls-1" d="M937.99,1219.64l309.28,309.28,618.5-618.57M573.49,1219.64l309.28,309.28M1501.34,910.35l-235.31,237.46"/>
  </g>
</svg>