<?xml version="1.0" encoding="UTF-8"?>
<svg id="Layer_1" data-name="Layer 1" xmlns="http://www.w3.org/2000/svg" viewBox="0 0 2439.27 2439.27">
  <defs>
    <style>
      .cls-1 {
        fill: #fff;
      }

      .cls-2 {
        fill:rgb(133, 133, 133);
      }

      .cls-3 {
        fill:rgb(208, 208, 208);
      }
    </style>
  </defs>
  <g>
    <rect class="cls-3" x=".5" y=".5" width="2438.27" height="2438.27" rx="163.5" ry="163.5"/>
    <path class="cls-2" d="M2275.27,1c43.54,0,84.47,16.95,115.26,47.74,30.79,30.79,47.74,71.72,47.74,115.26v2111.27c0,43.54-16.95,84.47-47.74,115.26s-71.72,47.74-115.26,47.74H164c-43.54,0-84.47-16.95-115.26-47.74-30.79-30.79-47.74-71.72-47.74-115.26V164c0-43.54,16.95-84.47,47.74-115.26C79.53,17.95,120.46,1,164,1h2111.27M2275.27,0H164C73.42,0,0,73.42,0,164v2111.27c0,90.57,73.42,164,164,164h2111.27c90.57,0,164-73.42,164-164V164c0-90.57-73.42-164-164-164h0Z"/>
  </g>
  <g>
    <path class="cls-1" d="M936.41,1530.11l-446.77-243.65v-134.95l446.77-242.27v158.51l-311.32,149.55,311.32,155.19v157.63Z"/>
    <path class="cls-1" d="M1012.72,1615.38l296.28-791.48h93.6l-296.97,791.48h-92.91Z"/>
    <path class="cls-1" d="M1502.85,1530.11v-157.63l311.26-153.93-311.26-152.75v-156.63l446.77,242.59v134.14l-446.77,244.22Z"/>
  </g>
</svg>