<?xml version="1.0" encoding="UTF-8"?>
<svg id="Layer_1" data-name="Layer 1" xmlns="http://www.w3.org/2000/svg" viewBox="0 0 2439.27 2439.27">
  <defs>
    <style>
      .cls-1 {
        fill: #e2e2e2;
      }

      .cls-2 {
        fill: #b7b7b7;
      }

      .cls-3 {
        fill: #2181b7;
      }

      .cls-4 {
        fill:rgb(197, 121, 0);
      }
    </style>
  </defs>
  <g>
    <rect class="cls-4" x=".5" y=".5" width="2438.27" height="2438.27" rx="163.5" ry="163.5"/>
    <path class="cls-3" d="M2275.27,1c43.54,0,84.47,16.95,115.26,47.74,30.79,30.79,47.74,71.72,47.74,115.26v2111.27c0,43.54-16.95,84.47-47.74,115.26s-71.72,47.74-115.26,47.74H164c-43.54,0-84.47-16.95-115.26-47.74-30.79-30.79-47.74-71.72-47.74-115.26V164c0-43.54,16.95-84.47,47.74-115.26C79.53,17.95,120.46,1,164,1h2111.27M2275.27,0H164C73.42,0,0,73.42,0,164v2111.27c0,90.57,73.42,164,164,164h2111.27c90.57,0,164-73.42,164-164V164c0-90.57-73.42-164-164-164h0Z"/>
  </g>
  <path class="cls-2" d="M1219.63,570.91c-178.4,0-324.36,145.96-324.36,324.36v129.75h129.75v-129.75c0-107.04,87.58-194.62,194.62-194.62s194.62,87.58,194.62,194.62v129.75h129.75v-129.75c0-178.4-145.96-324.36-324.36-324.36Z"/>
  <path class="cls-1" d="M1608.87,1868.36h-778.47c-71.36,0-129.75-58.39-129.75-129.75v-583.85c0-71.36,58.39-129.75,129.75-129.75h778.47c71.36,0,129.75,58.39,129.75,129.75v583.85c0,71.36-58.39,129.75-129.75,129.75Z"/>
  <path class="cls-2" d="M1219.63,1349.38c-53.74,0-97.31,43.57-97.31,97.31s43.57,97.31,97.31,97.31,97.31-43.57,97.31-97.31-43.57-97.31-97.31-97.31Z"/>
</svg>